<svg xmlns="http://www.w3.org/2000/svg" viewBox="0 0 300 300" id="img" fill="currentColor"><defs><style>.a{fill:#9ef2eb;}.b{fill:#fc943f;}.c{fill:#ffc5ff;}.d{fill:#fff;}</style></defs><title>Build a website</title><rect class="a" x="189.19" y="112.53" width="105.208" height="111.572"/><rect class="b" x="216.492" y="75.855" width="20.552" height="20.552"/><rect class="a" x="195.94" y="75.855" width="20.552" height="20.552"/><rect class="c" x="175.345" y="75.855" width="20.552" height="20.552"/><rect class="c" x="71.943" y="163.479" width="165.1" height="21.841"/><rect x="71.943" y="75.855" width="103.403" height="20.552"/><rect class="d" x="71.943" y="96.407" width="165.1" height="67.072"/><rect class="d" x="81.144" y="104.533" width="43.425" height="51.035"/><circle class="a" cx="78.564" cy="154.665" r="24.292"/><circle class="a" cx="214.987" cy="157.546" r="8.298"/><circle class="b" cx="259.142" cy="157.546" r="8.298"/><polygon class="c" points="128.653 224.102 154.493 185.363 180.376 224.102 128.653 224.102"/><rect class="d" x="197.789" y="174.443" width="74.51" height="17.8"/><polygon class="b" points="101.781 166.059 50.403 224.145 101.781 224.102 101.781 166.059"/><path class="c" d="M38.579,178.011l8.685-10.147-1.032-1.032a3.494,3.494,0,0,1-.086-4.9c2.193-2.451,4.858-.516,5.374.086.6.731,6.192,6.621,6.192,6.621L37.805,192.285h2.58s3.783.688,4.944,3.655a7.957,7.957,0,0,1,.043,4.729L38.407,215.46l6.277,8.642H24.391l9.5-20.122-5.633-.215L17.125,216.706l4.385,7.439H11.062l-5.288-7.954Z"/><polygon class="b" points="197.703 176.033 213.955 192.242 197.789 192.242 197.703 176.033"/><polygon class="b" points="216.363 174.443 234.162 192.199 254.413 192.199 236.914 174.4 216.363 174.443"/><polygon class="b" points="256.864 174.4 272.299 189.835 272.299 174.443 256.864 174.4"/><rect class="d" x="197.789" y="196.499" width="74.51" height="17.8"/><polygon class="b" points="197.789 198.176 213.955 214.342 197.789 214.342 197.789 198.176"/><polygon class="b" points="216.363 196.499 234.162 214.299 254.413 214.299 236.656 196.456 216.363 196.499"/><polygon class="b" points="256.864 196.456 272.299 211.934 272.299 196.499 256.864 196.456"/><circle class="c" cx="32.259" cy="174.443" r="6.621"/><path d="M154.493,169.24a5.2,5.2,0,1,0,5.2,5.2A5.193,5.193,0,0,0,154.493,169.24Zm0,9.072a3.913,3.913,0,1,1,3.913-3.912A3.927,3.927,0,0,1,154.493,178.312Z"/><path d="M237.688,111.885V75.211H71.3v55.635a24.9,24.9,0,0,0-14.274,36.115l-5.117-5.5a4.162,4.162,0,0,0-6.1,0l-.043.043a4.179,4.179,0,0,0,.129,5.847l.559.559L39.4,176.119a7.534,7.534,0,0,0,.215-1.719,7.322,7.322,0,1,0-4.515,6.707l-3.267,3.783h0L5,216.105l5.718,8.684H22.671l-4.73-8,10.534-12.253h4.472l-9.588,20.207H45.974l-6.793-9.329,6.578-13.931a6.765,6.765,0,0,0-6.019-9.846h-.516l19.09-22.7a25.149,25.149,0,0,0,13.027,9.545v7.481H83.294L48.941,224.746h53.442V185.965h50.906l-25.883,38.781h54.131l-25.883-38.781H188.5v38.781H295V111.885ZM26.282,174.443a5.977,5.977,0,1,1,5.977,5.976A5.964,5.964,0,0,1,26.282,174.443ZM16.351,216.62l4.041,6.837H11.406l-4.815-7.266L22.456,197.7a6.364,6.364,0,0,0,.6,3.052,6.205,6.205,0,0,0,3.912,3.44Zm20.078-23.69H39.74a5.5,5.5,0,0,1,4.686,2.623,5.444,5.444,0,0,1,.172,5.374l-6.879,14.619,5.761,7.911H25.466l9.587-20.208h-6.1a5.07,5.07,0,0,1-4.643-2.967,4.983,4.983,0,0,1,.774-5.46l23.174-26.958-1.419-1.418a2.9,2.9,0,0,1-.086-4.042l.043-.043a2.8,2.8,0,0,1,2.107-.9A2.766,2.766,0,0,1,51,162.4l5.891,6.32Zm93.428,30.527,24.679-36.976,24.679,36.976ZM259.142,165.2a7.653,7.653,0,1,1,7.653-7.653A7.671,7.671,0,0,1,259.142,165.2Zm12.512,9.888v13.2l-13.2-13.2Zm-15,0L271.7,190.136v1.5h-16.94l-16.51-16.51h18.4Zm-40.544,22.057,16.51,16.51H214.17l-15.736-15.736v-.774Zm20.25,0,16.51,16.51H234.42l-16.51-16.51Zm-37.921,2.58,13.93,13.93h-13.93v-13.93Zm60.063,15.22v8.513H215.632v-8.513Zm-3.783-1.29-16.51-16.51h18.445L271.7,212.192v1.5H254.714Zm16.94-3.311-13.2-13.2h13.2Zm-56.022-14.489v-2.967H258.5v2.967Zm-.645-30.655a7.653,7.653,0,1,1,7.653-7.653A7.67,7.67,0,0,1,214.987,165.2Zm1.118,9.888,16.51,16.51H214.17l-15.736-15.736v-.774Zm20.25,0,16.51,16.51H234.42l-16.51-16.51Zm-37.921,2.58,13.93,13.93h-13.93v-13.93Zm17.2-3.869v-7.309a8.87,8.87,0,0,0,5.417-2.322H236.4V173.8ZM236.4,94.859l-8.728-8.728L236.4,77.4Zm-9.631-9.631L218.039,76.5H235.5Zm-.9.9-8.728,8.728V77.4Zm.9.9,8.728,8.728H218.039ZM215.847,76.5V95.762H196.585V76.5Zm-20.552,0V95.762H176.033V76.5Zm-122.707,0H174.7V95.762H72.588Zm0,20.552H236.4v65.782H222.167a8.786,8.786,0,0,0,1.763-5.288,8.943,8.943,0,0,0-17.886,0,8.692,8.692,0,0,0,1.763,5.288H102.254a24.465,24.465,0,0,0,1.333-6.664h21.627V103.888H80.5v25.926c-.6-.043-1.2-.086-1.806-.086a24,24,0,0,0-6.105.774Zm9.2,32.891V105.178h42.135v49.745H103.63v-.215A24.956,24.956,0,0,0,81.789,129.943ZM55.046,154.665a23.647,23.647,0,1,1,23.647,23.647A23.689,23.689,0,0,1,55.046,154.665Zm17.542,30.053v-5.847a25.8,25.8,0,0,0,6.105.774,24.8,24.8,0,0,0,14.1-4.386l-8.384,9.459Zm28.548,38.739H51.821l33.192-37.492h.129v-.172l15.994-18.058ZM154.493,184.2l-.344.516H102.426V164.382l-1.591,1.806a15.09,15.09,0,0,0,.946-2.064H208.967a8.765,8.765,0,0,0,5.418,2.322v7.309h-17.2v10.92H154.88Zm35.342,1.806h7.309v6.879h17.2v2.967h-17.2v19.09h17.2v8.513H189.835Zm103.918,37.449H259.787v-8.513h13.157v-19.09h-13.2v-2.967h13.2V173.8h-13.2v-7.309a8.943,8.943,0,1,0-1.29,0V173.8H237.688V113.175H293.71V223.457Z"/></svg>