<svg xmlns="http://www.w3.org/2000/svg" viewBox="0 0 300 300"><defs><style>.a{fill:#fff;}.b{fill:#52bbef;}.c{fill:#ffdb43;}.d{fill:#9ef2eb;}</style></defs><title>Design a website</title><polygon class="a" points="213.977 123.019 208.209 139.018 184.704 170.74 46.558 170.779 68.365 110.298 217.216 110.298 213.977 123.019"/><polygon class="b" points="184.902 194.087 184.902 170.779 59.713 170.779 59.634 194.087 184.902 194.087"/><path class="c" d="M39.527,160.35c-3.2,7.032,1.935,15.683,9.678,15.683H70.1l-9.6,28.048,27.219,6.2L77.648,192.23,83.258,172a9.162,9.162,0,0,0-8.849-11.614H39.527Z"/><path d="M198.886,95.129s-2.014,7.822-2.607,9.481-2.212,5.649-2.212,5.649H110.634l5.491-15.17h82.761Z"/><path class="a" d="M186.917,123.019a75.033,75.033,0,0,0,12.009-27.89,75.833,75.833,0,0,0,.869-25.283h43.692a76.684,76.684,0,0,1,.671,10.074,75.225,75.225,0,0,1-13.51,43.1Z"/><polygon class="b" points="101.904 95.129 116.125 95.129 110.634 110.298 96.413 110.298 101.904 95.129"/><polygon class="d" points="87.603 95.129 101.825 95.129 96.413 110.298 82.191 110.298 87.603 95.129"/><polygon class="c" points="73.816 95.129 87.603 95.129 82.191 110.298 68.365 110.298 73.816 95.129"/><path class="c" d="M85.825,126.693l-2.844-1.3s-2.884-.79-3.595.909-.316,2.686.593,3.515c.908.79,25.638,11.457,25.638,11.457s2.8.079,3.16-1.739-.276-3.041-.987-3.357C107.079,135.9,85.825,126.693,85.825,126.693Z"/><path class="b" d="M49.521,139.018H79.149l7.98-16.434s2.054-2.647,3.556-1.422a6.494,6.494,0,0,1,1.9,3.476,2.806,2.806,0,0,1,3.516-.829,3.129,3.129,0,0,1,1.659,3.358,3.27,3.27,0,0,1,3.516-.83c2.449.632,1.382,3.832,1.382,3.832L94.556,147a12.746,12.746,0,0,1-11.14,6.794c-7.9,0-18.133-.237-18.133-.237L62.8,160.35l-22.913-.2Z"/><path d="M53.551,126.06l-8.1-11.574a8,8,0,0,0-7.822-1.975,5.487,5.487,0,0,0-4.068,6.913c.355,1.382,1.54,5.333,5.333,5.767s15.051,1.7,15.051,1.7Z"/><polygon class="c" points="59.713 230.154 5.593 230.154 5.593 212.101 23.646 212.101 23.646 194.087 41.699 194.087 41.699 176.033 59.595 176.033 59.713 230.154"/><rect x="280.028" y="189.741" width="14.419" height="24.888"/><rect class="c" x="280.028" y="139.018" width="14.419" height="50.684"/><rect class="d" x="184.902" y="139.018" width="95.126" height="75.571"/><path class="d" d="M148.44,214.629l-9.047,12.009a8.869,8.869,0,0,1-7.071,3.516h-.158a10.578,10.578,0,0,1-1.146-.079,8.884,8.884,0,0,1-7.268-11.5l1.264-3.99H148.44Z"/><path class="d" d="M130.939,230.075v.079H107.118A8.842,8.842,0,0,1,98.7,218.579l7.822-24.334.039-.158h25.006l-6.439,20.463,3.872.079h-4.03l-1.264,3.99A8.789,8.789,0,0,0,130.939,230.075Z"/><polygon points="217.414 155.254 231.833 195.627 243.803 195.627 229.305 155.254 217.414 155.254"/><circle class="a" cx="60.464" cy="131.236" r="7.348"/><path d="M279.435,138.425h-70.4l5.373-14.853h16.512l.158-.237A75.418,75.418,0,0,0,244.711,79.92a79.292,79.292,0,0,0-.671-10.153l-.079-.513H199.084l.079.671a76.4,76.4,0,0,1,.672,10,75.148,75.148,0,0,1-1.423,14.616H73.421L62.913,123.651a8.153,8.153,0,0,0-2.449-.395,7.905,7.905,0,0,0-6.123,2.883l-8.178-11.693a7.2,7.2,0,0,0-12.088.435l-.118.2a7.089,7.089,0,0,0-.237,6.874,7.162,7.162,0,0,0,5.649,3.95l14.063,1.541a7.927,7.927,0,0,0,3.713,10.982H49.126l-10.192,22.32a11.117,11.117,0,0,0,.79,10.706,10.907,10.907,0,0,0,4.425,3.95H41.107v18.054H23.053v18.053H5v19.238H60.306V204.674l28.522,6.478-9.2-16.473h26.152l-7.624,23.742a9.413,9.413,0,0,0,8.967,12.325h25.125a9.545,9.545,0,0,0,7.545-3.752l9.8-12.958H125.764l6.2-19.357h52.3v20.542H295v-76.8ZM39.487,124.717a5.976,5.976,0,0,1-4.7-3.279,6.1,6.1,0,0,1,.2-5.767l.118-.2a5.949,5.949,0,0,1,5.175-2.923,6.014,6.014,0,0,1,4.938,2.568l7.7,11.061ZM201.02,79.92a75.884,75.884,0,0,0-.593-9.481h42.507a75.883,75.883,0,0,1,.592,9.481,74.437,74.437,0,0,1-13.234,42.506H188.023a75.175,75.175,0,0,0,11.456-27.179A76.716,76.716,0,0,0,201.02,79.92Zm-118,29.786,5.056-13.985h12.958l-5.017,13.985ZM102.3,95.721h12.957l-5.017,13.985H97.282Zm14.261,0h81.615a74.85,74.85,0,0,1-4.464,13.985H111.543Zm-42.309,0H86.813l-5.056,13.985H69.194ZM53.709,131.236a6.755,6.755,0,1,1,6.755,6.755A6.777,6.777,0,0,1,53.709,131.236Zm14.695,0a7.96,7.96,0,0,0-4.424-7.111l4.78-13.234h124.4a74.447,74.447,0,0,1-6.715,11.812l-.632.948h27.376l-5.412,14.774H184.309v31.722H84.087a9.8,9.8,0,0,0-9.757-10.429H63.624l2.568-5.61H83.929a12.618,12.618,0,0,0,11.3-7.071l3.951-8.177,6.2,2.686a3.093,3.093,0,0,0,1.3.277,3.177,3.177,0,0,0,2.963-1.936l.039-.04a3.261,3.261,0,0,0-1.659-4.266l-5.965-2.607,1.264-2.568a3.468,3.468,0,0,0-1.58-4.622l-.04-.04a3.478,3.478,0,0,0-3.239.119,3.722,3.722,0,0,0-.158-.632,3.435,3.435,0,0,0-1.738-1.975l-.04-.04a3.478,3.478,0,0,0-3.239.119,3.722,3.722,0,0,0-.158-.632,3.437,3.437,0,0,0-1.738-1.976l-.04-.039a3.468,3.468,0,0,0-4.622,1.58l-1.62,3.279-2.093-.909a3.2,3.2,0,0,0-2.489-.039,3.256,3.256,0,0,0-1.778,1.7l-.039.04a3.2,3.2,0,0,0-.04,2.489,3.253,3.253,0,0,0,1.7,1.777l1.857.791-3.358,6.913H63.822A7.608,7.608,0,0,0,68.4,131.236Zm33.065,2.883,6.005,2.608a2.06,2.06,0,0,1,1.066,2.686l-.039.039a2.06,2.06,0,0,1-2.686,1.067l-6.163-2.686Zm-18.8-3.674-1.9-.829A2.062,2.062,0,0,1,79.7,126.93l.04-.04a2.238,2.238,0,0,1,1.145-1.106,2,2,0,0,1,1.581.039l2.054.909ZM49.916,139.61H79.544l8.178-16.749a2.2,2.2,0,0,1,1.3-1.146,2.23,2.23,0,0,1,1.739.119l.039.039a2.2,2.2,0,0,1,1.146,1.3,2.227,2.227,0,0,1-.119,1.738l-4.424,9.125,1.066.514,4.385-9.165a2.2,2.2,0,0,1,1.3-1.146,2.227,2.227,0,0,1,1.738.119l.04.039a2.264,2.264,0,0,1,1.027,3.042l-4.425,9.126,1.067.513,4.424-9.125a2.248,2.248,0,0,1,3-1.027l.039.039a2.261,2.261,0,0,1,1.027,3.042l-8.019,16.631a11.386,11.386,0,0,1-10.232,6.4H57.422v1.185h7.427l-2.568,5.61H40.712Zm9.205,89.951H6.185V212.693H24.239V194.64H42.292V176.586H59.121v52.975Zm4.345-36.067H60.345V176.626h8.928Zm-3.16,1.185h2.726l-2.726,7.98Zm.908,8.968,9.679-28.206H49.166a9.964,9.964,0,0,1-8.415-4.583,10.121,10.121,0,0,1-.711-9.6l.158-.316H74.33a8.58,8.58,0,0,1,8.256,10.9l-5.649,20.463,9.56,17.1Zm86,11.574-8.335,11.062a8.309,8.309,0,0,1-6.6,3.278h-.158a8.256,8.256,0,0,1-7.861-10.784l1.146-3.556Zm-24.1,3.2a9.347,9.347,0,0,0,1.344,8.454,8.952,8.952,0,0,0,3.041,2.686H107.118a8.256,8.256,0,0,1-7.861-10.784l7.743-24.1h23.742ZM78.952,193.494l-.751-1.343,5.531-19.989c.079-.277.118-.514.2-.79h100.38v22.122Zm106.542,20.542V139.61h93.941V214H185.494Zm108.36,0H280.62v-23.7h13.234ZM280.62,189.149V139.61h13.234v49.5H280.62Z"/><polygon points="191.42 145.536 201.494 145.536 201.494 144.351 190.235 144.351 190.235 155.61 191.42 155.61 191.42 145.536"/><polygon points="191.42 198.037 190.235 198.037 190.235 209.296 201.494 209.296 201.494 208.111 191.42 208.111 191.42 198.037"/><path d="M225.433,179.47l6,16.789h13.194L229.779,154.7h-12.76L201.81,195.074h-5.175v1.185h12.088v-1.185h-5.649l5.886-15.6Zm3.516-23.623,14.024,39.188H232.267l-14.024-39.188Zm-11.575,1.106L225,178.245H209.355Z"/><polygon points="253.955 208.111 243.882 208.111 243.882 209.296 255.14 209.296 255.14 198.037 253.955 198.037 253.955 208.111"/><polygon points="243.882 145.536 253.955 145.536 253.955 155.61 255.14 155.61 255.14 144.351 243.882 144.351 243.882 145.536"/><path d="M123.631,138.939c.356-.119.672-.277,1.027-.395a15.606,15.606,0,0,0,2.568,4.424,20.368,20.368,0,0,0,12.444,6.676,36.72,36.72,0,0,0,14.142-.711c.079-.039.2-.039.277-.079a28.891,28.891,0,0,0,4.622,5.689,53.413,53.413,0,0,0,9.994,7.229l.593-1.027a52.246,52.246,0,0,1-9.758-7.071,26.339,26.339,0,0,1-4.227-5.1,31.84,31.84,0,0,0,9.758-3.832,17.763,17.763,0,0,0,7.7-9.205,18.674,18.674,0,0,0,.869-5.017,12.62,12.62,0,0,0-.4-4.068,9.294,9.294,0,0,0-7.585-6.163,13.237,13.237,0,0,0-9.481,2.647,12.065,12.065,0,0,0-4.306,5.293,15.361,15.361,0,0,0-.829,4.227,30.014,30.014,0,0,0,.908,11.733,22.254,22.254,0,0,0,1.541,3.634,36.216,36.216,0,0,1-13.589.672,19.3,19.3,0,0,1-11.733-6.281,14.953,14.953,0,0,1-2.41-4.109c4.267-1.777,8.415-3.99,11.417-7.506a8.3,8.3,0,0,0,2.173-4.385,4.412,4.412,0,0,0-2.292-4.5,5.7,5.7,0,0,0-2.844-.277,12.421,12.421,0,0,0-9.757,7.862,13.28,13.28,0,0,0-.158,8.138c-.356.158-.712.276-1.067.434a35.126,35.126,0,0,1-8.81,2.41l.119,1.185A36.884,36.884,0,0,0,123.631,138.939Zm29.431,4.938a28.694,28.694,0,0,1-.83-11.3,15.5,15.5,0,0,1,.751-3.911,10.875,10.875,0,0,1,3.871-4.741,12.67,12.67,0,0,1,7.269-2.528c.474,0,.908.039,1.382.079a8.1,8.1,0,0,1,6.637,5.333,11.123,11.123,0,0,1,.356,3.674,18.257,18.257,0,0,1-.79,4.7,16.362,16.362,0,0,1-7.23,8.572,32.04,32.04,0,0,1-9.757,3.753A16.667,16.667,0,0,1,153.062,143.877Zm-27.5-14.182a11.134,11.134,0,0,1,8.809-7.071,7.606,7.606,0,0,1,.909-.079,3.2,3.2,0,0,1,1.3.237,3.16,3.16,0,0,1,1.58,3.278,6.865,6.865,0,0,1-1.935,3.753c-2.845,3.319-6.8,5.452-10.864,7.151A11.984,11.984,0,0,1,125.567,129.7Z"/><path d="M229.739,86.122l-1.185-.079c-.158,2.37-.4,4.74-.751,7.111l1.186.2C229.344,90.941,229.621,88.532,229.739,86.122Z"/><path d="M212.634,86.122l-1.185-.079c-.158,2.37-.4,4.74-.751,7.111l1.185.2C212.239,90.941,212.515,88.532,212.634,86.122Z"/><path d="M216.189,110.891a15.421,15.421,0,0,0,11.5-5.886l-.909-.751a14.163,14.163,0,0,1-10.547,5.452c-3.674,0-6.518-2.015-7.427-5.215l-1.146.316C208.644,108.521,211.923,110.891,216.189,110.891Z"/></svg>