<?xml version="1.0" encoding="utf-8"?>
<!-- Generator: Adobe Illustrator 20.0.0, SVG Export Plug-In . SVG Version: 6.00 Build 0)  -->
<svg viewBox="0 0 170 60" xmlns="http://www.w3.org/2000/svg">
  <defs>
    <style>
      .st1 { fill: rgb(1, 131, 143); }
    </style>
  </defs>
  <g transform="matrix(1, 0, 0, 1, -40.980129, -21.715467)">
    <path class="st0" d="M59,61.3c-3.3-0.5-6-1.4-8.2-2.7c-2.2-1.3-3.9-2.8-5.3-4.5c-1.3-1.7-2.3-3.5-2.8-5.5c-0.6-1.9-0.9-3.8-0.9-5.7
		c0-3.1,0.5-5.8,1.6-8.2c1.1-2.4,2.6-4.3,4.4-5.9c1.9-1.6,4.1-2.8,6.6-3.6c2.6-0.8,5.3-1.2,8.2-1.2h20.5v55.4h-9.7V33.6H63
		c-3.6,0-6.3,0.8-8.2,2.4c-1.9,1.6-2.9,4-2.9,7.1c0,3.4,1.2,6,3.7,7.6c2.5,1.7,6.3,2.7,11.5,3.1c3.8,0.3,5.8,1.9,5.8,5
		c0,0.8-0.2,1.6-0.7,2.4c-0.4,0.8-1.1,1.7-2,2.6L55.5,79.3H42.1L59,61.3z" style="fill: rgb(38, 50, 56);"></path>
  </g>
  <g transform="matrix(1, 0, 0, 1, -40.980129, -21.715467)">
    <path class="st0" d="M132.1,79.3h-11.5L96.9,41.9v37.4h-9.6v-51c0-1.5,0.4-2.6,1.1-3.5c0.7-0.9,1.7-1.3,2.9-1.3
		c1.1,0,2.1,0.2,3.1,0.7c1,0.5,1.8,1.2,2.4,2.2L132.1,79.3z" style="fill: rgb(38, 50, 56);"></path>
  </g>
  <rect x="96.9" y="48.1" transform="matrix(0, -1, 1, 0, -1.271922, 141.914352)" class="st0" width="9.6" height="27.7" style="fill: rgb(38, 50, 56);"></rect>
  <g transform="matrix(1, 0, 0, 1, -40.980129, -21.715467)">
    <path class="st0" d="M100.1,23.9h11.5l23.7,37.4V30.2c0-0.9,0.2-1.7,0.5-2.5c0.3-0.8,0.8-1.5,1.3-2c0.6-0.6,1.2-1,2-1.3
		c0.8-0.3,1.6-0.5,2.4-0.5c1,0,2,0.2,2.9,0.7c0.9,0.5,1.8,1.3,2.6,2.7l21.6,34.1V23.9h9.7v51c0,1.5-0.4,2.6-1.1,3.5
		c-0.8,0.9-1.8,1.3-3,1.3c-1.1,0-2.1-0.2-3.1-0.6c-1-0.4-1.8-1.2-2.4-2.2L145,41.2v33.7c0,1.5-0.4,2.6-1.1,3.5
		c-0.8,0.9-1.8,1.3-3,1.3c-1.1,0-2.1-0.2-3.1-0.6c-1-0.4-1.8-1.2-2.4-2.2L100.1,23.9z" style="fill: rgb(38, 50, 56);"></path>
  </g>
  <g transform="matrix(1, 0, 0, 1, -40.980129, -21.715467)">
    <path class="st1" d="M209.8,79.3h-27.5V23.9h27.1v9.7H192v12.9h15V56h-15v13.6h17.8V79.3z"></path>
  </g>
  <rect x="60.72" y="2.184" class="st2" width="82.3" height="76.1" style="fill: none;"></rect>
  <text class="st3 st4 st5" style="white-space: pre; display: none; fill: rgb(43, 43, 43); font-family: Strasua-Regular; font-size: 71px; line-height: 113.6px; perspective-origin: 50% 50%; transform: none;">W</text>
  <rect x="138.32" y="2.184" class="st2" width="43.5" height="76.1" style="fill: none;"></rect>
  <text class="st3 st4 st5" style="white-space: pre; display: none; fill: rgb(43, 43, 43); font-family: Strasua-Regular; font-size: 71px; line-height: 113.6px; perspective-origin: 50% 50%; transform: none;">E</text>
</svg>
