<svg xmlns="http://www.w3.org/2000/svg" viewBox="0 0 300 300"><defs><style>.a{fill:#fff;}.b{fill:#52bbef;}.c{fill:#ffc5ff;}.d{fill:#ffdb43;}</style></defs><title>Coding website</title><circle class="a" cx="34.017" cy="107.232" r="4.005"/><path class="a" d="M277.587,125.984V273.775A15.645,15.645,0,0,1,261.959,289.4H21.3A15.644,15.644,0,0,1,5.67,273.775V125.984Z"/><rect class="b" x="257.048" y="183.94" width="29.29" height="37.283"/><rect class="a" x="286.293" y="183.94" width="7.992" height="37.283"/><rect class="c" x="219.765" y="183.94" width="37.283" height="37.283"/><rect class="c" x="219.765" y="221.222" width="37.283" height="37.283"/><path class="d" d="M277.587,116.608v9.376H5.67v-9.376A15.645,15.645,0,0,1,21.3,100.98H261.959A15.617,15.617,0,0,1,277.587,116.608Z"/><circle cx="51.079" cy="146.345" r="6.206"/><circle cx="40.898" cy="155.408" r="6.206"/><circle cx="29.111" cy="149.202" r="6.206"/><circle class="a" cx="39.202" cy="113.482" r="5.179"/><circle class="a" cx="56.615" cy="113.482" r="5.179"/><path class="c" d="M108.945,189.342,92.781,198,84.119,182.02H99.925V171.973H61.973l-5.894,22.1H66.8l1.027-3.84L80.5,210.506a15.882,15.882,0,0,0,12.814,7.233,17.258,17.258,0,0,0,8.35-2.053l9.376-4.957,8.394,17.548,23.352-11.163-13.395-21.208s-1.563-3.974-7.947-6.787A15.889,15.889,0,0,0,108.945,189.342Z"/><path class="b" d="M229.1,278.24h21.566a5.983,5.983,0,0,0,5.983-5.983v-.134a5.983,5.983,0,0,0-5.983-5.983H229.1a5.983,5.983,0,0,0-5.983,5.983v.134A5.983,5.983,0,0,0,229.1,278.24Z"/><path class="d" d="M144.441,278.24h61.751a5.983,5.983,0,0,0,5.983-5.983v-.134a5.983,5.983,0,0,0-5.983-5.983H144.441a5.983,5.983,0,0,0-5.983,5.983v.134A6.012,6.012,0,0,0,144.441,278.24Z"/><path class="b" d="M28.53,278.24h93.05a5.984,5.984,0,0,0,5.984-5.983v-.134a5.984,5.984,0,0,0-5.984-5.983H28.53a5.983,5.983,0,0,0-5.983,5.983v.134A5.983,5.983,0,0,0,28.53,278.24Z"/><path class="b" d="M171.945,254.218h8.171a5.983,5.983,0,0,0,5.983-5.983V248.1a5.983,5.983,0,0,0-5.983-5.983H171.99a5.983,5.983,0,0,0-5.983,5.983v.134A5.917,5.917,0,0,0,171.945,254.218Z"/><path class="c" d="M100.238,254.218h48.8a5.983,5.983,0,0,0,5.983-5.983V248.1a5.983,5.983,0,0,0-5.983-5.983h-48.8a5.983,5.983,0,0,0-5.983,5.983v.134A6.012,6.012,0,0,0,100.238,254.218Z"/><path class="d" d="M28.53,254.218H76.886a5.983,5.983,0,0,0,5.983-5.983V248.1a5.983,5.983,0,0,0-5.983-5.983H28.53a5.983,5.983,0,0,0-5.983,5.983v.134A5.983,5.983,0,0,0,28.53,254.218Z"/><path class="b" d="M28.53,230.2h73.405a5.983,5.983,0,0,0,5.983-5.983v-.134a5.983,5.983,0,0,0-5.983-5.983H28.53a5.983,5.983,0,0,0-5.983,5.983v.134A5.983,5.983,0,0,0,28.53,230.2Z"/><rect class="d" x="219.765" y="183.94" width="37.283" height="37.283"/><rect class="c" x="219.765" y="221.222" width="37.283" height="37.283"/><path class="a" d="M126.4,182.02H99.925V171.973h26.21s4.956.313,4.956,5.091S126.4,182.02,126.4,182.02Z"/><rect x="109.882" y="143.844" width="42.73" height="28.04"/><path class="a" d="M56.035,194.075,51.57,210.729h-11.7a3.774,3.774,0,0,0-3.661,3.528c-.268,3.75,3.84,3.84,3.84,3.84l20.271.044,6.43-24.066Z"/><polygon points="119.348 228.277 125.733 241.538 157.568 227.25 132.921 221.803 119.348 228.277"/><path class="c" d="M252.672,78.656H201.95s-9.51.089-13.975,8.037a16.718,16.718,0,0,0-.983,14.287l21.566,42.864,25-11.7L217.354,101.07l21.075-.134s9.064-.357,13.305-8.8A16.121,16.121,0,0,0,252.672,78.656Z"/><path class="b" d="M198.2,65.752l.134-.179,1.027-1.2-12.457-7.1L195.3,41.507s4.063-9.019,13.4-9.243a16.273,16.273,0,0,1,13.44,6.073l24.512,31.478,3.438,4.42,1.518,2.233,1.027,2.232-44.471-.134Z"/><path class="b" d="M179.58,28.291s-5.983-5.492-2.857-11.7c3.795-7.635,10.18-5.715,10.984-5.8,1.027-.089,3.527,1.473,4.107,1.875A24.525,24.525,0,0,1,194,14.851Z"/><polygon class="b" points="172.169 93.881 120.286 93.881 122.339 100.802 174.178 100.802 172.169 93.881"/><polygon points="79.431 58.563 91.754 100.802 122.339 100.802 120.286 93.881 96.219 93.881 86.396 58.563 79.431 58.563"/><polyline class="a" points="128.412 58.563 86.396 58.563 96.219 93.881 138.726 93.881 128.814 58.563 128.367 58.251"/><path d="M210.567,171.393l34.6-16.967-11.609-22.235-15.806,7.456,2.9,12.591-16.074,8.35a6.211,6.211,0,0,0-2.545,8.215S204.9,174.117,210.567,171.393Z"/><path class="a" d="M69.474,155.23l-1.518-2.992a6.1,6.1,0,0,0-2.411-2.5l-8.216,12.814,4.733,9.332H78.627L72.6,160.856,74.877,158Z"/><path d="M56.7,150.452a7.871,7.871,0,0,0-1.786,7.5l2.411,4.6,8.216-12.814A7.345,7.345,0,0,0,56.7,150.452Z"/><path class="a" d="M200.209,35.39a30.366,30.366,0,0,0-4.108,4.688l-2.143,3.974-6.385-7.01s-.715.759-2.054,1.92c-1.3,1.161-3.126-.089-3.126-.089a2.784,2.784,0,0,1-.134-3.751l1.876-1.786L179.58,28.38,193.958,14.9,209.406,32.22A16.543,16.543,0,0,0,200.209,35.39Z"/><path class="a" d="M186.9,57.224,175.517,78.656l-4.42-3.037a8.687,8.687,0,0,0-4.911-1.607c-2.858,0-5.046,2.9-5.716,3.884s-5.983,8.663-5.983,8.663-2.277,4.018,1.429,6.3c0,0,3.527,1.3,5.492-1.607l2.233-3.349,8.215,5.269a10.737,10.737,0,0,0,6.117,1.2c3.661-.312,6.251-3.348,7.68-5.8,1.429-2.5,13.707-24.2,13.707-24.2Z"/><path d="M21.833,119.331a5.849,5.849,0,1,0-5.849-5.849A5.869,5.869,0,0,0,21.833,119.331Zm0-10.358a4.51,4.51,0,1,1-4.51,4.509A4.526,4.526,0,0,1,21.833,108.973Z"/><path d="M39.2,119.331a5.849,5.849,0,1,0-5.849-5.849A5.869,5.869,0,0,0,39.2,119.331Zm0-10.358a4.51,4.51,0,1,1-4.51,4.509A4.525,4.525,0,0,1,39.2,108.973Z"/><path d="M56.615,119.331a5.849,5.849,0,1,0-5.849-5.849A5.869,5.869,0,0,0,56.615,119.331Zm0-10.358a4.51,4.51,0,1,1-4.51,4.509A4.526,4.526,0,0,1,56.615,108.973Z"/><path d="M250.663,265.515H229.1a6.67,6.67,0,0,0-6.653,6.653v.133a6.67,6.67,0,0,0,6.653,6.653h21.566a6.67,6.67,0,0,0,6.653-6.653v-.133A6.7,6.7,0,0,0,250.663,265.515Zm5.268,6.742a5.326,5.326,0,0,1-5.313,5.313H229.052a5.326,5.326,0,0,1-5.313-5.313v-.134a5.326,5.326,0,0,1,5.313-5.313h21.611a5.326,5.326,0,0,1,5.313,5.313v.134Z"/><path d="M206.236,265.515H144.441a6.67,6.67,0,0,0-6.653,6.653v.133a6.67,6.67,0,0,0,6.653,6.653h61.751a6.67,6.67,0,0,0,6.653-6.653v-.133A6.632,6.632,0,0,0,206.236,265.515Zm5.269,6.742a5.326,5.326,0,0,1-5.313,5.313H144.441a5.326,5.326,0,0,1-5.313-5.313v-.134a5.326,5.326,0,0,1,5.313-5.313h61.751a5.326,5.326,0,0,1,5.313,5.313v.134Z"/><path d="M121.58,265.515H28.53a6.669,6.669,0,0,0-6.652,6.653v.133a6.669,6.669,0,0,0,6.652,6.653h93.05a6.669,6.669,0,0,0,6.653-6.653v-.133A6.7,6.7,0,0,0,121.58,265.515Zm5.269,6.742a5.326,5.326,0,0,1-5.313,5.313H28.53a5.326,5.326,0,0,1-5.313-5.313v-.134a5.326,5.326,0,0,1,5.313-5.313h93.05a5.326,5.326,0,0,1,5.314,5.313v.134Z"/><path d="M171.945,254.888h8.171a6.67,6.67,0,0,0,6.653-6.653V248.1a6.67,6.67,0,0,0-6.653-6.653H171.99a6.67,6.67,0,0,0-6.653,6.653v.134A6.6,6.6,0,0,0,171.945,254.888Zm-5.313-6.742a5.326,5.326,0,0,1,5.313-5.313h8.171a5.326,5.326,0,0,1,5.314,5.313v.134a5.326,5.326,0,0,1-5.314,5.313H171.99a5.326,5.326,0,0,1-5.313-5.313v-.134Z"/><path d="M28.53,254.888H76.886a6.67,6.67,0,0,0,6.653-6.653V248.1a6.67,6.67,0,0,0-6.653-6.653H28.53a6.669,6.669,0,0,0-6.652,6.653v.134A6.669,6.669,0,0,0,28.53,254.888Zm-5.313-6.742a5.326,5.326,0,0,1,5.313-5.313H76.886a5.326,5.326,0,0,1,5.313,5.313v.134a5.326,5.326,0,0,1-5.313,5.313H28.53a5.326,5.326,0,0,1-5.313-5.313Z"/><path d="M28.53,230.866h73.405a6.668,6.668,0,0,0,6.652-6.652v-.134a6.669,6.669,0,0,0-6.652-6.653H99.256a14.2,14.2,0,0,0,2.232-.982l9.153-4.823,7.769,16.3h0l.313.714.223.491h0l5.939,12.323H100.193A6.67,6.67,0,0,0,93.54,248.1v.134a6.67,6.67,0,0,0,6.653,6.653H149a6.67,6.67,0,0,0,6.653-6.653V248.1A6.67,6.67,0,0,0,149,241.448H127.43l32.237-14.466-24.736-5.4,8.751-4.152-14.065-22.236a16.821,16.821,0,0,0-22.191-5.8l-14.377,7.724c-.982-1.83-4.241-7.813-7.813-14.422h40.9a5.631,5.631,0,0,0,5.626-5.625v-.134a5.471,5.471,0,0,0-2.01-4.287h23.486V143.174H109.168V171.3H79.029c-2.723-5-4.956-9.109-5.626-10.359l2.679-3.17-6.117-3.17-1.473-2.679a7.718,7.718,0,0,0-10.716-2.947l-.134.089c-.134.089-.223.134-.357.223a7.052,7.052,0,0,0,.625-2.9,6.876,6.876,0,0,0-13.752,0,7,7,0,0,0,1.116,3.795,6.9,6.9,0,0,0-9.51.626,6,6,0,0,0,.178-1.563,6.843,6.843,0,1,0-1.786,4.643,5.992,5.992,0,0,0-.178,1.563,6.876,6.876,0,1,0,13.752,0,7,7,0,0,0-1.116-3.8,6.96,6.96,0,0,0,4.42,1.607,6.547,6.547,0,0,0,3.572-1.027,7.641,7.641,0,0,0,.134,7.144L61.3,171.616,51.034,210.06H39.827a4.335,4.335,0,0,0-4.331,4.331v.089a4.444,4.444,0,0,0,1.25,3.036h-8.26a6.67,6.67,0,0,0-6.653,6.653v.134A6.689,6.689,0,0,0,28.53,230.866Zm125.823,17.28v.134a5.326,5.326,0,0,1-5.313,5.313h-48.8a5.326,5.326,0,0,1-5.313-5.313v-.134a5.326,5.326,0,0,1,5.313-5.313h48.8A5.3,5.3,0,0,1,154.353,248.146ZM29.111,154.739a5.537,5.537,0,1,1,5.536-5.537A5.536,5.536,0,0,1,29.111,154.739Zm38.934,37.148,11.7,18.753a16.348,16.348,0,0,0,8.617,6.832H61.169Zm64.921,30.63,22.459,4.956L126,240.645l-5.805-12.1L132.43,222.7ZM92.513,198.942l15.539-8.394a15.522,15.522,0,0,1,20.449,5.358l13.261,20.985-8.93,4.242h0l-.446.223-12.725,6.028-8.395-17.548-10.4,5.492a15.254,15.254,0,0,1-20-5.4l-12.368-19.78,2.724-10.225-1.295-.357L66.215,193.45H56.883l5.537-20.762H78.226c2.991,5.536,7.411,13.663,13.93,25.673Zm18.039-54.428h41.39V171.3h-41.39v-26.79Zm15.583,28.129a4.288,4.288,0,0,1,4.286,4.287v.089a4.287,4.287,0,0,1-4.286,4.286H100.6V172.6h25.54Zm-26.879,0v8.707H84.521c-1.607-2.947-3.215-5.938-4.733-8.707ZM67.331,152.551l1.563,2.857.089.179,5,2.59-2.054,2.455v.224a16.474,16.474,0,0,0,1.473,2.813,5.465,5.465,0,0,1-7.367-1.3l-1.071.8a6.743,6.743,0,0,0,5.447,2.724,6.476,6.476,0,0,0,3.616-1.071c.8,1.518,1.92,3.571,3.483,6.429H62.687l-4.643-8.617,7.814-11.922A5.917,5.917,0,0,1,67.331,152.551ZM40.9,160.945a5.537,5.537,0,1,1,5.537-5.537A5.535,5.535,0,0,1,40.9,160.945Zm4.644-14.6a5.537,5.537,0,1,1,5.537,5.536A5.536,5.536,0,0,1,45.542,146.345Zm12.814,3.795.134-.09a6.224,6.224,0,0,1,4.957-.625,6.619,6.619,0,0,1,1.294.536L57.329,161.3l-1.339-2.545A6.385,6.385,0,0,1,58.356,150.14ZM36.88,214.48v-.089a2.992,2.992,0,0,1,2.991-2.992H52.105l4.465-16.654H65.9L59.83,217.472H39.871v-.045A2.982,2.982,0,0,1,36.88,214.48Zm-13.663,9.644a5.326,5.326,0,0,1,5.313-5.313h73.405a5.326,5.326,0,0,1,5.313,5.313v.134a5.326,5.326,0,0,1-5.313,5.314H28.53a5.326,5.326,0,0,1-5.313-5.314Z"/><rect x="116.578" y="66.397" width="1.339" height="7.814" transform="translate(-15.433 37.356) rotate(-17.002)"/><rect x="103.514" y="66.418" width="1.339" height="7.814" transform="matrix(0.956, -0.292, 0.292, 0.956, -16.01, 33.537)"/><polygon points="107.382 87.898 124.795 87.898 122.473 80.308 121.179 80.709 123.009 86.559 108.364 86.559 106.444 80.308 105.149 80.709 107.382 87.898"/><path d="M199.45,31.238a2.924,2.924,0,0,1-.492,1.562l1.117.759a3.864,3.864,0,0,0,.714-2.321,4.053,4.053,0,0,0-7.412-2.278l1.116.759a2.661,2.661,0,0,1,2.233-1.205A2.735,2.735,0,0,1,199.45,31.238Z"/><circle cx="186.858" cy="28.648" r="1.518"/><circle cx="66.438" cy="156.703" r="1.295"/><polygon class="a" points="139.708 167.732 147.924 157.909 139.708 148.086 138.681 148.979 146.182 157.909 138.681 166.883 139.708 167.732"/><polygon class="a" points="120.866 148.086 112.65 157.909 120.866 167.732 121.893 166.883 114.392 157.909 121.893 148.979 120.866 148.086"/><rect class="a" x="119.689" y="157.227" width="21.567" height="1.34" transform="translate(-63.215 224.525) rotate(-69.416)"/><path d="M295,183.27H278.3V116.831a16.54,16.54,0,0,0-16.52-16.52h-17.95a17.224,17.224,0,0,0,6.832-26.522l-27.951-35.9a16.412,16.412,0,0,0-12.993-6.34L193.556,13.467a10.416,10.416,0,0,0-14.913-.67l-.134.134a10.492,10.492,0,0,0-.536,14.645l.67.715-8.93,8.3.893.982,8.885-8.305,3.661,3.974-1.428,1.339a3.045,3.045,0,0,0-.983,2.233,3.131,3.131,0,0,0,.893,2.277l.045.045a3.042,3.042,0,0,0,2.232.982,2.964,2.964,0,0,0,2.278-.893l1.339-1.25,5.626,6.117-17.9,33.621-4.509-3.081a7.282,7.282,0,0,0-10.091,1.831l-6.876,9.912a4.631,4.631,0,0,0-.759,3.661,4.8,4.8,0,0,0,2.054,3.081l.089.045h-15.94L128.9,57.849H78.538l12.413,42.417H21.52A16.54,16.54,0,0,0,5,116.786V273.507a16.54,16.54,0,0,0,16.52,16.52H261.736a16.539,16.539,0,0,0,16.52-16.52V221.892h16.7V183.27Zm-74.565,38.622h35.943v35.943H220.435Zm0-1.34V184.609h35.943v35.943Zm65.189-35.943v35.943H257.673V184.609ZM261.736,101.65a15.226,15.226,0,0,1,15.181,15.181v8.484H230.749L218.426,101.65h43.31ZM251.422,91.381a15.743,15.743,0,0,1-14.288,8.93h-20.9l16.431,31.522-23.8,11.118-20.762-41.122a15.494,15.494,0,0,1,13.841-22.5h50.231A15.763,15.763,0,0,1,251.422,91.381Zm-7.189,62.733L209.9,170.947a5.41,5.41,0,0,1-7.1-2.188l-.044-.09a5.612,5.612,0,0,1-.491-4.241,5.211,5.211,0,0,1,2.723-3.26l16.521-8.572L218.56,139.96l14.734-6.876Zm-121.358-53.8-1.7-5.76h50.454l1.7,5.76Zm51.839,0-1.7-5.849a9.885,9.885,0,0,0,6.117.357,10.167,10.167,0,0,0,6.474-4.912l.447-.8a16.388,16.388,0,0,0-.09,11.207Zm23.8-33.086,8.394,10.761H201.95a16.735,16.735,0,0,0-13.082,6.206ZM221.64,38.694l27.951,35.9a15.622,15.622,0,0,1,2.054,3.394H208.6L199.226,65.93l6.832-12.055-1.161-.67-5.8,10.225L187.8,57l8.573-16.118a15.132,15.132,0,0,1,25.271-2.188ZM178.955,26.639a9.159,9.159,0,0,1,.447-12.77l.134-.134a9.068,9.068,0,0,1,12.993.58l.446.536-13.395,12.5ZM190.3,38.962a7.849,7.849,0,0,0,6.7-7.457l-1.34-.089a6.378,6.378,0,0,1-6.519,6.251l-1.518-1.652L185.3,38.2a1.836,1.836,0,0,1-2.59-.089l-.045-.045a1.8,1.8,0,0,1,.09-2.59l2.366-2.232-4.554-4.956,13.4-12.5L208.022,31.55a16.356,16.356,0,0,0-12.769,8.617l-1.385,2.59ZM154.309,89.818a3.409,3.409,0,0,1,.536-2.634l6.92-9.957a5.984,5.984,0,0,1,8.26-1.518l5.716,3.929,11.43-21.477,11.3,6.43L184.492,89.238a8.763,8.763,0,0,1-5.671,4.286,9.017,9.017,0,0,1-7.01-1.161l-8.394-5.358-2.768,4.108a3.5,3.5,0,0,1-4.778.982l-.089-.045A3.623,3.623,0,0,1,154.309,89.818Zm7.5,2.054,2.054-3.036,6.831,4.375H160.47A6.32,6.32,0,0,0,161.81,91.872Zm-23.977,1.339H97.068L87.155,59.233h40.766ZM80.324,59.233h5.4L96.041,94.551H119.75l1.7,5.76H92.29ZM21.52,101.65H186.5c.134.268.223.536.357.8l11.565,22.861H6.339v-8.484A15.226,15.226,0,0,1,21.52,101.65Zm255.442,171.9a15.226,15.226,0,0,1-15.181,15.181H21.565A15.226,15.226,0,0,1,6.384,273.552v-146.9H199.137l9.109,18.083,9.019-4.242,2.634,11.341-15.583,8.127a6.792,6.792,0,0,0-2.723,9.376l.044.089a6.788,6.788,0,0,0,5.894,3.438,7.28,7.28,0,0,0,2.992-.669l35.586-17.458-14.646-28.085h45.5V183.27H219.1v75.9h38.623V221.892h19.244Zm16.7-53h-6.653V184.609h6.653Z"/></svg>